<mxfile host="Electron" agent="Mozilla/5.0 (Windows NT 10.0; Win64; x64) AppleWebKit/537.36 (KHTML, like Gecko) draw.io/28.1.2 Chrome/138.0.7204.243 Electron/37.4.0 Safari/537.36" version="28.1.2" pages="6">
  <diagram name="Page-1" id="0WLAEZtcyT_955zfbsb-">
    <mxGraphModel dx="772" dy="501" grid="1" gridSize="10" guides="1" tooltips="1" connect="1" arrows="1" fold="1" page="1" pageScale="1" pageWidth="850" pageHeight="1100" math="0" shadow="0">
      <root>
        <mxCell id="0" />
        <mxCell id="1" parent="0" />
        <mxCell id="emtr_DaOn8bHJ5oR55lB-1" value="SkillSwap App" style="swimlane;whiteSpace=wrap;html=1;" vertex="1" parent="1">
          <mxGeometry x="280" y="190" width="320" height="430" as="geometry" />
        </mxCell>
        <mxCell id="emtr_DaOn8bHJ5oR55lB-2" value="User authentication" style="ellipse;whiteSpace=wrap;html=1;" vertex="1" parent="emtr_DaOn8bHJ5oR55lB-1">
          <mxGeometry x="90" y="40" width="130" height="50" as="geometry" />
        </mxCell>
        <mxCell id="emtr_DaOn8bHJ5oR55lB-3" value="skill browsing" style="ellipse;whiteSpace=wrap;html=1;" vertex="1" parent="emtr_DaOn8bHJ5oR55lB-1">
          <mxGeometry x="90" y="110" width="130" height="50" as="geometry" />
        </mxCell>
        <mxCell id="emtr_DaOn8bHJ5oR55lB-6" value="swap management" style="ellipse;whiteSpace=wrap;html=1;" vertex="1" parent="emtr_DaOn8bHJ5oR55lB-1">
          <mxGeometry x="90" y="190" width="130" height="50" as="geometry" />
        </mxCell>
        <mxCell id="emtr_DaOn8bHJ5oR55lB-11" value="conversation" style="ellipse;whiteSpace=wrap;html=1;" vertex="1" parent="emtr_DaOn8bHJ5oR55lB-1">
          <mxGeometry x="95" y="260" width="130" height="50" as="geometry" />
        </mxCell>
        <mxCell id="emtr_DaOn8bHJ5oR55lB-10" value="profile management" style="ellipse;whiteSpace=wrap;html=1;" vertex="1" parent="emtr_DaOn8bHJ5oR55lB-1">
          <mxGeometry x="95" y="335" width="130" height="50" as="geometry" />
        </mxCell>
        <mxCell id="emtr_DaOn8bHJ5oR55lB-8" value="User" style="shape=umlActor;verticalLabelPosition=bottom;verticalAlign=top;html=1;outlineConnect=0;" vertex="1" parent="1">
          <mxGeometry x="80" y="330" width="80" height="140" as="geometry" />
        </mxCell>
        <mxCell id="emtr_DaOn8bHJ5oR55lB-4" value="" style="endArrow=none;html=1;rounded=0;exitX=1;exitY=0.3333333333333333;exitDx=0;exitDy=0;exitPerimeter=0;entryX=0;entryY=0.5;entryDx=0;entryDy=0;" edge="1" parent="1" source="emtr_DaOn8bHJ5oR55lB-8" target="emtr_DaOn8bHJ5oR55lB-2">
          <mxGeometry width="50" height="50" relative="1" as="geometry">
            <mxPoint x="310" y="330" as="sourcePoint" />
            <mxPoint x="360" y="280" as="targetPoint" />
          </mxGeometry>
        </mxCell>
        <mxCell id="emtr_DaOn8bHJ5oR55lB-5" value="" style="endArrow=none;html=1;rounded=0;exitX=1;exitY=0.3333333333333333;exitDx=0;exitDy=0;exitPerimeter=0;entryX=0;entryY=0.5;entryDx=0;entryDy=0;" edge="1" parent="1" source="emtr_DaOn8bHJ5oR55lB-8" target="emtr_DaOn8bHJ5oR55lB-3">
          <mxGeometry width="50" height="50" relative="1" as="geometry">
            <mxPoint x="310" y="410" as="sourcePoint" />
            <mxPoint x="360" y="360" as="targetPoint" />
          </mxGeometry>
        </mxCell>
        <mxCell id="emtr_DaOn8bHJ5oR55lB-7" value="" style="endArrow=none;html=1;rounded=0;exitX=1;exitY=0.3333333333333333;exitDx=0;exitDy=0;exitPerimeter=0;entryX=0;entryY=0.5;entryDx=0;entryDy=0;" edge="1" parent="1" source="emtr_DaOn8bHJ5oR55lB-8" target="emtr_DaOn8bHJ5oR55lB-6">
          <mxGeometry width="50" height="50" relative="1" as="geometry">
            <mxPoint x="310" y="480" as="sourcePoint" />
            <mxPoint x="360" y="430" as="targetPoint" />
          </mxGeometry>
        </mxCell>
        <mxCell id="emtr_DaOn8bHJ5oR55lB-12" value="" style="endArrow=none;html=1;rounded=0;exitX=1;exitY=0.3333333333333333;exitDx=0;exitDy=0;exitPerimeter=0;entryX=0;entryY=0.5;entryDx=0;entryDy=0;" edge="1" parent="1" source="emtr_DaOn8bHJ5oR55lB-8" target="emtr_DaOn8bHJ5oR55lB-10">
          <mxGeometry width="50" height="50" relative="1" as="geometry">
            <mxPoint x="360" y="400" as="sourcePoint" />
            <mxPoint x="570" y="428" as="targetPoint" />
          </mxGeometry>
        </mxCell>
        <mxCell id="emtr_DaOn8bHJ5oR55lB-13" value="" style="endArrow=none;html=1;rounded=0;entryX=0;entryY=0.5;entryDx=0;entryDy=0;exitX=1;exitY=0.3333333333333333;exitDx=0;exitDy=0;exitPerimeter=0;" edge="1" parent="1" source="emtr_DaOn8bHJ5oR55lB-8" target="emtr_DaOn8bHJ5oR55lB-11">
          <mxGeometry width="50" height="50" relative="1" as="geometry">
            <mxPoint x="160" y="380" as="sourcePoint" />
            <mxPoint x="570" y="428" as="targetPoint" />
          </mxGeometry>
        </mxCell>
      </root>
    </mxGraphModel>
  </diagram>
  <diagram id="iwbI4zrMPhrlvp3Gj5W5" name="Page-2">
    <mxGraphModel dx="772" dy="501" grid="1" gridSize="10" guides="1" tooltips="1" connect="1" arrows="1" fold="1" page="1" pageScale="1" pageWidth="850" pageHeight="1100" math="0" shadow="0">
      <root>
        <mxCell id="0" />
        <mxCell id="1" parent="0" />
        <mxCell id="nLQ3u24I4TbLpSccLMna-13" value="&lt;span style=&quot;font-weight: 400;&quot;&gt;User authentication&lt;/span&gt;" style="swimlane;whiteSpace=wrap;html=1;" vertex="1" parent="1">
          <mxGeometry x="350" y="230" width="320" height="310" as="geometry" />
        </mxCell>
        <mxCell id="nLQ3u24I4TbLpSccLMna-14" value="login" style="ellipse;whiteSpace=wrap;html=1;" vertex="1" parent="nLQ3u24I4TbLpSccLMna-13">
          <mxGeometry x="80" y="60" width="130" height="50" as="geometry" />
        </mxCell>
        <mxCell id="nLQ3u24I4TbLpSccLMna-15" value="signup" style="ellipse;whiteSpace=wrap;html=1;" vertex="1" parent="nLQ3u24I4TbLpSccLMna-13">
          <mxGeometry x="80" y="140" width="130" height="50" as="geometry" />
        </mxCell>
        <mxCell id="nLQ3u24I4TbLpSccLMna-16" value="" style="endArrow=none;html=1;rounded=0;exitX=1;exitY=0.3333333333333333;exitDx=0;exitDy=0;exitPerimeter=0;" edge="1" parent="nLQ3u24I4TbLpSccLMna-13" source="nLQ3u24I4TbLpSccLMna-20">
          <mxGeometry width="50" height="50" relative="1" as="geometry">
            <mxPoint x="30" y="140" as="sourcePoint" />
            <mxPoint x="80" y="90" as="targetPoint" />
          </mxGeometry>
        </mxCell>
        <mxCell id="nLQ3u24I4TbLpSccLMna-17" value="" style="endArrow=none;html=1;rounded=0;exitX=1;exitY=0.3333333333333333;exitDx=0;exitDy=0;exitPerimeter=0;" edge="1" parent="nLQ3u24I4TbLpSccLMna-13" source="nLQ3u24I4TbLpSccLMna-20">
          <mxGeometry width="50" height="50" relative="1" as="geometry">
            <mxPoint x="30" y="220" as="sourcePoint" />
            <mxPoint x="80" y="170" as="targetPoint" />
          </mxGeometry>
        </mxCell>
        <mxCell id="nLQ3u24I4TbLpSccLMna-18" value="navigation to maint abs" style="ellipse;whiteSpace=wrap;html=1;" vertex="1" parent="nLQ3u24I4TbLpSccLMna-13">
          <mxGeometry x="80" y="220" width="130" height="50" as="geometry" />
        </mxCell>
        <mxCell id="nLQ3u24I4TbLpSccLMna-19" value="" style="endArrow=none;html=1;rounded=0;exitX=1;exitY=0.3333333333333333;exitDx=0;exitDy=0;exitPerimeter=0;" edge="1" parent="nLQ3u24I4TbLpSccLMna-13" source="nLQ3u24I4TbLpSccLMna-20">
          <mxGeometry width="50" height="50" relative="1" as="geometry">
            <mxPoint x="30" y="290" as="sourcePoint" />
            <mxPoint x="80" y="240" as="targetPoint" />
          </mxGeometry>
        </mxCell>
        <mxCell id="nLQ3u24I4TbLpSccLMna-20" value="User" style="shape=umlActor;verticalLabelPosition=bottom;verticalAlign=top;html=1;outlineConnect=0;" vertex="1" parent="1">
          <mxGeometry x="160" y="285" width="80" height="140" as="geometry" />
        </mxCell>
      </root>
    </mxGraphModel>
  </diagram>
  <diagram id="MBxwnmoeeguPcKVlj_zS" name="Page-3">
    <mxGraphModel dx="772" dy="501" grid="1" gridSize="10" guides="1" tooltips="1" connect="1" arrows="1" fold="1" page="1" pageScale="1" pageWidth="850" pageHeight="1100" math="0" shadow="0">
      <root>
        <mxCell id="0" />
        <mxCell id="1" parent="0" />
        <mxCell id="LwxDOjYOZb02oNxcNFfr-1" value="&lt;span style=&quot;font-weight: 400;&quot;&gt;Skill Browsing&lt;/span&gt;" style="swimlane;whiteSpace=wrap;html=1;" vertex="1" parent="1">
          <mxGeometry x="290" y="250" width="320" height="230" as="geometry" />
        </mxCell>
        <mxCell id="LwxDOjYOZb02oNxcNFfr-2" value="view skill" style="ellipse;whiteSpace=wrap;html=1;" vertex="1" parent="LwxDOjYOZb02oNxcNFfr-1">
          <mxGeometry x="80" y="60" width="130" height="50" as="geometry" />
        </mxCell>
        <mxCell id="LwxDOjYOZb02oNxcNFfr-3" value="Request Swap" style="ellipse;whiteSpace=wrap;html=1;" vertex="1" parent="LwxDOjYOZb02oNxcNFfr-1">
          <mxGeometry x="80" y="140" width="130" height="50" as="geometry" />
        </mxCell>
        <mxCell id="LwxDOjYOZb02oNxcNFfr-4" value="" style="endArrow=none;html=1;rounded=0;exitX=1;exitY=0.3333333333333333;exitDx=0;exitDy=0;exitPerimeter=0;" edge="1" parent="LwxDOjYOZb02oNxcNFfr-1" source="LwxDOjYOZb02oNxcNFfr-8">
          <mxGeometry width="50" height="50" relative="1" as="geometry">
            <mxPoint x="30" y="140" as="sourcePoint" />
            <mxPoint x="80" y="90" as="targetPoint" />
          </mxGeometry>
        </mxCell>
        <mxCell id="LwxDOjYOZb02oNxcNFfr-5" value="" style="endArrow=none;html=1;rounded=0;exitX=1;exitY=0.3333333333333333;exitDx=0;exitDy=0;exitPerimeter=0;" edge="1" parent="LwxDOjYOZb02oNxcNFfr-1" source="LwxDOjYOZb02oNxcNFfr-8">
          <mxGeometry width="50" height="50" relative="1" as="geometry">
            <mxPoint x="30" y="220" as="sourcePoint" />
            <mxPoint x="80" y="170" as="targetPoint" />
          </mxGeometry>
        </mxCell>
        <mxCell id="LwxDOjYOZb02oNxcNFfr-8" value="User" style="shape=umlActor;verticalLabelPosition=bottom;verticalAlign=top;html=1;outlineConnect=0;" vertex="1" parent="1">
          <mxGeometry x="100" y="305" width="80" height="140" as="geometry" />
        </mxCell>
      </root>
    </mxGraphModel>
  </diagram>
  <diagram id="-FJiMvJ7Nz7mbSE_UVqx" name="Page-4">
    <mxGraphModel dx="772" dy="501" grid="1" gridSize="10" guides="1" tooltips="1" connect="1" arrows="1" fold="1" page="1" pageScale="1" pageWidth="850" pageHeight="1100" math="0" shadow="0">
      <root>
        <mxCell id="0" />
        <mxCell id="1" parent="0" />
        <mxCell id="V7Ka2DahQq3wZTW1__u9-1" value="Swap Management" style="swimlane;whiteSpace=wrap;html=1;" vertex="1" parent="1">
          <mxGeometry x="350" y="190" width="320" height="350" as="geometry" />
        </mxCell>
        <mxCell id="V7Ka2DahQq3wZTW1__u9-2" value="view swap" style="ellipse;whiteSpace=wrap;html=1;" vertex="1" parent="V7Ka2DahQq3wZTW1__u9-1">
          <mxGeometry x="90" y="40" width="130" height="50" as="geometry" />
        </mxCell>
        <mxCell id="V7Ka2DahQq3wZTW1__u9-3" value="categorizes swaps" style="ellipse;whiteSpace=wrap;html=1;" vertex="1" parent="V7Ka2DahQq3wZTW1__u9-1">
          <mxGeometry x="90" y="110" width="130" height="50" as="geometry" />
        </mxCell>
        <mxCell id="V7Ka2DahQq3wZTW1__u9-4" value="view swap detail" style="ellipse;whiteSpace=wrap;html=1;" vertex="1" parent="V7Ka2DahQq3wZTW1__u9-1">
          <mxGeometry x="90" y="190" width="130" height="50" as="geometry" />
        </mxCell>
        <mxCell id="V7Ka2DahQq3wZTW1__u9-5" value="initiate new swap" style="ellipse;whiteSpace=wrap;html=1;" vertex="1" parent="V7Ka2DahQq3wZTW1__u9-1">
          <mxGeometry x="95" y="260" width="130" height="50" as="geometry" />
        </mxCell>
        <mxCell id="V7Ka2DahQq3wZTW1__u9-7" value="User" style="shape=umlActor;verticalLabelPosition=bottom;verticalAlign=top;html=1;outlineConnect=0;" vertex="1" parent="1">
          <mxGeometry x="150" y="330" width="80" height="140" as="geometry" />
        </mxCell>
        <mxCell id="V7Ka2DahQq3wZTW1__u9-8" value="" style="endArrow=none;html=1;rounded=0;exitX=1;exitY=0.3333333333333333;exitDx=0;exitDy=0;exitPerimeter=0;entryX=0;entryY=0.5;entryDx=0;entryDy=0;" edge="1" parent="1" source="V7Ka2DahQq3wZTW1__u9-7" target="V7Ka2DahQq3wZTW1__u9-2">
          <mxGeometry width="50" height="50" relative="1" as="geometry">
            <mxPoint x="380" y="330" as="sourcePoint" />
            <mxPoint x="430" y="280" as="targetPoint" />
          </mxGeometry>
        </mxCell>
        <mxCell id="V7Ka2DahQq3wZTW1__u9-9" value="" style="endArrow=none;html=1;rounded=0;exitX=1;exitY=0.3333333333333333;exitDx=0;exitDy=0;exitPerimeter=0;entryX=0;entryY=0.5;entryDx=0;entryDy=0;" edge="1" parent="1" source="V7Ka2DahQq3wZTW1__u9-7" target="V7Ka2DahQq3wZTW1__u9-3">
          <mxGeometry width="50" height="50" relative="1" as="geometry">
            <mxPoint x="380" y="410" as="sourcePoint" />
            <mxPoint x="430" y="360" as="targetPoint" />
          </mxGeometry>
        </mxCell>
        <mxCell id="V7Ka2DahQq3wZTW1__u9-10" value="" style="endArrow=none;html=1;rounded=0;exitX=1;exitY=0.3333333333333333;exitDx=0;exitDy=0;exitPerimeter=0;entryX=0;entryY=0.5;entryDx=0;entryDy=0;" edge="1" parent="1" source="V7Ka2DahQq3wZTW1__u9-7" target="V7Ka2DahQq3wZTW1__u9-4">
          <mxGeometry width="50" height="50" relative="1" as="geometry">
            <mxPoint x="380" y="480" as="sourcePoint" />
            <mxPoint x="430" y="430" as="targetPoint" />
          </mxGeometry>
        </mxCell>
        <mxCell id="V7Ka2DahQq3wZTW1__u9-12" value="" style="endArrow=none;html=1;rounded=0;entryX=0;entryY=0.5;entryDx=0;entryDy=0;exitX=1;exitY=0.3333333333333333;exitDx=0;exitDy=0;exitPerimeter=0;" edge="1" parent="1" source="V7Ka2DahQq3wZTW1__u9-7" target="V7Ka2DahQq3wZTW1__u9-5">
          <mxGeometry width="50" height="50" relative="1" as="geometry">
            <mxPoint x="230" y="380" as="sourcePoint" />
            <mxPoint x="640" y="428" as="targetPoint" />
          </mxGeometry>
        </mxCell>
      </root>
    </mxGraphModel>
  </diagram>
  <diagram id="QF3qx2ho8132mVBQiW9r" name="Page-5">
    <mxGraphModel dx="772" dy="501" grid="1" gridSize="10" guides="1" tooltips="1" connect="1" arrows="1" fold="1" page="1" pageScale="1" pageWidth="850" pageHeight="1100" math="0" shadow="0">
      <root>
        <mxCell id="0" />
        <mxCell id="1" parent="0" />
        <mxCell id="r1eXkvi3T4-KG6Gc2GR8-1" value="Conversation" style="swimlane;whiteSpace=wrap;html=1;" vertex="1" parent="1">
          <mxGeometry x="290" y="150" width="320" height="350" as="geometry" />
        </mxCell>
        <mxCell id="r1eXkvi3T4-KG6Gc2GR8-2" value="view conversation" style="ellipse;whiteSpace=wrap;html=1;" vertex="1" parent="r1eXkvi3T4-KG6Gc2GR8-1">
          <mxGeometry x="90" y="40" width="130" height="50" as="geometry" />
        </mxCell>
        <mxCell id="r1eXkvi3T4-KG6Gc2GR8-3" value="start conversation" style="ellipse;whiteSpace=wrap;html=1;" vertex="1" parent="r1eXkvi3T4-KG6Gc2GR8-1">
          <mxGeometry x="90" y="110" width="130" height="50" as="geometry" />
        </mxCell>
        <mxCell id="r1eXkvi3T4-KG6Gc2GR8-4" value="show empty state" style="ellipse;whiteSpace=wrap;html=1;" vertex="1" parent="r1eXkvi3T4-KG6Gc2GR8-1">
          <mxGeometry x="90" y="190" width="130" height="50" as="geometry" />
        </mxCell>
        <mxCell id="r1eXkvi3T4-KG6Gc2GR8-5" value="start&amp;nbsp; new conversation&amp;nbsp;&lt;br&gt;FAB" style="ellipse;whiteSpace=wrap;html=1;" vertex="1" parent="r1eXkvi3T4-KG6Gc2GR8-1">
          <mxGeometry x="95" y="260" width="130" height="50" as="geometry" />
        </mxCell>
        <mxCell id="r1eXkvi3T4-KG6Gc2GR8-6" value="User" style="shape=umlActor;verticalLabelPosition=bottom;verticalAlign=top;html=1;outlineConnect=0;" vertex="1" parent="1">
          <mxGeometry x="90" y="290" width="80" height="140" as="geometry" />
        </mxCell>
        <mxCell id="r1eXkvi3T4-KG6Gc2GR8-7" value="" style="endArrow=none;html=1;rounded=0;exitX=1;exitY=0.3333333333333333;exitDx=0;exitDy=0;exitPerimeter=0;entryX=0;entryY=0.5;entryDx=0;entryDy=0;" edge="1" parent="1" source="r1eXkvi3T4-KG6Gc2GR8-6" target="r1eXkvi3T4-KG6Gc2GR8-2">
          <mxGeometry width="50" height="50" relative="1" as="geometry">
            <mxPoint x="320" y="290" as="sourcePoint" />
            <mxPoint x="370" y="240" as="targetPoint" />
          </mxGeometry>
        </mxCell>
        <mxCell id="r1eXkvi3T4-KG6Gc2GR8-8" value="" style="endArrow=none;html=1;rounded=0;exitX=1;exitY=0.3333333333333333;exitDx=0;exitDy=0;exitPerimeter=0;entryX=0;entryY=0.5;entryDx=0;entryDy=0;" edge="1" parent="1" source="r1eXkvi3T4-KG6Gc2GR8-6" target="r1eXkvi3T4-KG6Gc2GR8-3">
          <mxGeometry width="50" height="50" relative="1" as="geometry">
            <mxPoint x="320" y="370" as="sourcePoint" />
            <mxPoint x="370" y="320" as="targetPoint" />
          </mxGeometry>
        </mxCell>
        <mxCell id="r1eXkvi3T4-KG6Gc2GR8-9" value="" style="endArrow=none;html=1;rounded=0;exitX=1;exitY=0.3333333333333333;exitDx=0;exitDy=0;exitPerimeter=0;entryX=0;entryY=0.5;entryDx=0;entryDy=0;" edge="1" parent="1" source="r1eXkvi3T4-KG6Gc2GR8-6" target="r1eXkvi3T4-KG6Gc2GR8-4">
          <mxGeometry width="50" height="50" relative="1" as="geometry">
            <mxPoint x="320" y="440" as="sourcePoint" />
            <mxPoint x="370" y="390" as="targetPoint" />
          </mxGeometry>
        </mxCell>
        <mxCell id="r1eXkvi3T4-KG6Gc2GR8-10" value="" style="endArrow=none;html=1;rounded=0;entryX=0;entryY=0.5;entryDx=0;entryDy=0;exitX=1;exitY=0.3333333333333333;exitDx=0;exitDy=0;exitPerimeter=0;" edge="1" parent="1" source="r1eXkvi3T4-KG6Gc2GR8-6" target="r1eXkvi3T4-KG6Gc2GR8-5">
          <mxGeometry width="50" height="50" relative="1" as="geometry">
            <mxPoint x="170" y="340" as="sourcePoint" />
            <mxPoint x="580" y="388" as="targetPoint" />
          </mxGeometry>
        </mxCell>
      </root>
    </mxGraphModel>
  </diagram>
  <diagram id="lyFZplakTenD2NrVbA27" name="Page-6">
    <mxGraphModel dx="772" dy="501" grid="1" gridSize="10" guides="1" tooltips="1" connect="1" arrows="1" fold="1" page="1" pageScale="1" pageWidth="850" pageHeight="1100" math="0" shadow="0">
      <root>
        <mxCell id="0" />
        <mxCell id="1" parent="0" />
        <mxCell id="bB-1gMn4U0AAuw2c-esR-1" value="&lt;span style=&quot;font-weight: 400;&quot;&gt;Profile management&lt;/span&gt;" style="swimlane;whiteSpace=wrap;html=1;" vertex="1" parent="1">
          <mxGeometry x="340" y="260" width="320" height="310" as="geometry" />
        </mxCell>
        <mxCell id="bB-1gMn4U0AAuw2c-esR-2" value="view profile" style="ellipse;whiteSpace=wrap;html=1;" vertex="1" parent="bB-1gMn4U0AAuw2c-esR-1">
          <mxGeometry x="80" y="60" width="130" height="50" as="geometry" />
        </mxCell>
        <mxCell id="bB-1gMn4U0AAuw2c-esR-3" value="edit profile" style="ellipse;whiteSpace=wrap;html=1;" vertex="1" parent="bB-1gMn4U0AAuw2c-esR-1">
          <mxGeometry x="80" y="140" width="130" height="50" as="geometry" />
        </mxCell>
        <mxCell id="bB-1gMn4U0AAuw2c-esR-4" value="" style="endArrow=none;html=1;rounded=0;exitX=1;exitY=0.3333333333333333;exitDx=0;exitDy=0;exitPerimeter=0;" edge="1" parent="bB-1gMn4U0AAuw2c-esR-1" source="bB-1gMn4U0AAuw2c-esR-8">
          <mxGeometry width="50" height="50" relative="1" as="geometry">
            <mxPoint x="30" y="140" as="sourcePoint" />
            <mxPoint x="80" y="90" as="targetPoint" />
          </mxGeometry>
        </mxCell>
        <mxCell id="bB-1gMn4U0AAuw2c-esR-5" value="" style="endArrow=none;html=1;rounded=0;exitX=1;exitY=0.3333333333333333;exitDx=0;exitDy=0;exitPerimeter=0;" edge="1" parent="bB-1gMn4U0AAuw2c-esR-1" source="bB-1gMn4U0AAuw2c-esR-8">
          <mxGeometry width="50" height="50" relative="1" as="geometry">
            <mxPoint x="30" y="220" as="sourcePoint" />
            <mxPoint x="80" y="170" as="targetPoint" />
          </mxGeometry>
        </mxCell>
        <mxCell id="bB-1gMn4U0AAuw2c-esR-6" value="upload profile picture" style="ellipse;whiteSpace=wrap;html=1;" vertex="1" parent="bB-1gMn4U0AAuw2c-esR-1">
          <mxGeometry x="80" y="220" width="130" height="50" as="geometry" />
        </mxCell>
        <mxCell id="bB-1gMn4U0AAuw2c-esR-7" value="" style="endArrow=none;html=1;rounded=0;exitX=1;exitY=0.3333333333333333;exitDx=0;exitDy=0;exitPerimeter=0;" edge="1" parent="bB-1gMn4U0AAuw2c-esR-1" source="bB-1gMn4U0AAuw2c-esR-8">
          <mxGeometry width="50" height="50" relative="1" as="geometry">
            <mxPoint x="30" y="290" as="sourcePoint" />
            <mxPoint x="80" y="240" as="targetPoint" />
          </mxGeometry>
        </mxCell>
        <mxCell id="bB-1gMn4U0AAuw2c-esR-8" value="User" style="shape=umlActor;verticalLabelPosition=bottom;verticalAlign=top;html=1;outlineConnect=0;" vertex="1" parent="1">
          <mxGeometry x="150" y="315" width="80" height="140" as="geometry" />
        </mxCell>
      </root>
    </mxGraphModel>
  </diagram>
</mxfile>
